<svg width="14" height="14" viewBox="0 0 14 14" fill="none" xmlns="http://www.w3.org/2000/svg">
<path d="M6.99999 0.333313C7.88405 0.333313 8.7319 0.684502 9.35702 1.30962C9.98214 1.93474 10.3333 2.78259 10.3333 3.66665C10.3333 4.5507 9.98214 5.39855 9.35702 6.02367C8.7319 6.64879 7.88405 6.99998 6.99999 6.99998C6.11594 6.99998 5.26809 6.64879 4.64297 6.02367C4.01785 5.39855 3.66666 4.5507 3.66666 3.66665C3.66666 2.78259 4.01785 1.93474 4.64297 1.30962C5.26809 0.684502 6.11594 0.333313 6.99999 0.333313ZM6.99999 8.66665C10.6833 8.66665 13.6667 10.1583 13.6667 12V13.6666H0.333328V12C0.333328 10.1583 3.31666 8.66665 6.99999 8.66665Z" fill="currentColor"/>
</svg>
