<svg width="20" height="21" viewBox="0 0 20 21" fill="none" xmlns="http://www.w3.org/2000/svg">
<path d="M12.5 11.3333H13.75V13.6833L15.7833 14.8583L15.1583 15.9416L12.5 14.4083V11.3333ZM15.8333 7.16665H4.16667V16.3333H8.05833C7.7 15.575 7.5 14.725 7.5 13.8333C7.5 12.2862 8.11458 10.8025 9.20854 9.70852C10.3025 8.61456 11.7862 7.99998 13.3333 7.99998C14.225 7.99998 15.075 8.19998 15.8333 8.55831V7.16665ZM4.16667 18C3.24167 18 2.5 17.25 2.5 16.3333V4.66665C2.5 3.74165 3.24167 2.99998 4.16667 2.99998H5V1.33331H6.66667V2.99998H13.3333V1.33331H15V2.99998H15.8333C16.2754 2.99998 16.6993 3.17557 17.0118 3.48814C17.3244 3.8007 17.5 4.22462 17.5 4.66665V9.74998C18.5333 10.8 19.1667 12.2416 19.1667 13.8333C19.1667 15.3804 18.5521 16.8641 17.4581 17.9581C16.3642 19.0521 14.8804 19.6666 13.3333 19.6666C11.7417 19.6666 10.3 19.0333 9.25 18H4.16667ZM13.3333 9.79165C12.2614 9.79165 11.2334 10.2175 10.4754 10.9754C9.71748 11.7334 9.29167 12.7614 9.29167 13.8333C9.29167 16.0666 11.1 17.875 13.3333 17.875C13.8641 17.875 14.3897 17.7704 14.88 17.5673C15.3704 17.3642 15.8159 17.0665 16.1912 16.6912C16.5665 16.3159 16.8642 15.8703 17.0673 15.38C17.2705 14.8896 17.375 14.3641 17.375 13.8333C17.375 11.6 15.5667 9.79165 13.3333 9.79165Z" fill="black"/>
</svg>
