<svg width="18" height="19" viewBox="0 0 18 19" fill="none" xmlns="http://www.w3.org/2000/svg">
<path d="M10.5 10.3334H11.75V12.6834L13.7833 13.8584L13.1583 14.9417L10.5 13.4084V10.3334ZM13.8333 6.16671H2.16667V15.3334H6.05833C5.7 14.575 5.5 13.725 5.5 12.8334C5.5 11.2863 6.11458 9.80255 7.20854 8.70858C8.30251 7.61462 9.78624 7.00004 11.3333 7.00004C12.225 7.00004 13.075 7.20004 13.8333 7.55837V6.16671ZM2.16667 17C1.24167 17 0.5 16.25 0.5 15.3334V3.66671C0.5 2.74171 1.24167 2.00004 2.16667 2.00004H3V0.333374H4.66667V2.00004H11.3333V0.333374H13V2.00004H13.8333C14.2754 2.00004 14.6993 2.17564 15.0118 2.4882C15.3244 2.80076 15.5 3.22468 15.5 3.66671V8.75004C16.5333 9.80004 17.1667 11.2417 17.1667 12.8334C17.1667 14.3805 16.5521 15.8642 15.4581 16.9582C14.3642 18.0521 12.8804 18.6667 11.3333 18.6667C9.74167 18.6667 8.3 18.0334 7.25 17H2.16667ZM11.3333 8.79171C10.2614 8.79171 9.2334 9.21752 8.47544 9.97548C7.71748 10.7334 7.29167 11.7615 7.29167 12.8334C7.29167 15.0667 9.1 16.875 11.3333 16.875C11.8641 16.875 12.3897 16.7705 12.88 16.5674C13.3704 16.3643 13.8159 16.0666 14.1912 15.6913C14.5665 15.316 14.8642 14.8704 15.0673 14.3801C15.2705 13.8897 15.375 13.3641 15.375 12.8334C15.375 10.6 13.5667 8.79171 11.3333 8.79171Z" fill="black"/>
</svg>
