<svg width="19" height="14" viewBox="0 0 19 14" fill="none" xmlns="http://www.w3.org/2000/svg">
<path d="M9.8151 4.5C10.4781 4.5 11.114 4.76339 11.5829 5.23223C12.0517 5.70107 12.3151 6.33696 12.3151 7C12.3151 7.66304 12.0517 8.29893 11.5829 8.76777C11.114 9.23661 10.4781 9.5 9.8151 9.5C9.15206 9.5 8.51618 9.23661 8.04734 8.76777C7.5785 8.29893 7.3151 7.66304 7.3151 7C7.3151 6.33696 7.5785 5.70107 8.04734 5.23223C8.51618 4.76339 9.15206 4.5 9.8151 4.5ZM9.8151 0.75C13.9818 0.75 17.5401 3.34167 18.9818 7C17.5401 10.6583 13.9818 13.25 9.8151 13.25C5.64844 13.25 2.0901 10.6583 0.648438 7C2.0901 3.34167 5.64844 0.75 9.8151 0.75ZM2.4651 7C3.8401 9.8 6.68177 11.5833 9.8151 11.5833C12.9484 11.5833 15.7901 9.8 17.1651 7C15.7901 4.2 12.9484 2.41667 9.8151 2.41667C6.68177 2.41667 3.8401 4.2 2.4651 7Z" fill="black"/>
</svg>
