<svg width="16" height="20" viewBox="0 0 16 20" fill="none" xmlns="http://www.w3.org/2000/svg">
<path d="M10.5 4.16666C10.942 4.16666 11.3659 4.34226 11.6785 4.65482C11.9911 4.96738 12.1667 5.3913 12.1667 5.83333V19.1667L6.33333 16.6667L0.5 19.1667V5.83333C0.5 4.90833 1.25 4.16666 2.16667 4.16666H10.5ZM5.5 0.833328H13.8333C14.2754 0.833328 14.6993 1.00892 15.0118 1.32148C15.3244 1.63404 15.5 2.05797 15.5 2.49999V15.8333L13.8333 15.1083V2.49999H3.83333C3.83333 2.05797 4.00893 1.63404 4.32149 1.32148C4.63405 1.00892 5.05797 0.833328 5.5 0.833328Z" fill="currentColor"/>
</svg>
