<svg width="24" height="24" viewBox="0 0 24 24" fill="none" xmlns="http://www.w3.org/2000/svg">
<path d="M14.5858 2.58579C14.2107 2.21071 13.702 2 13.1716 2H6C5.46957 2 4.96086 2.21071 4.58579 2.58579C4.21071 2.96086 4 3.46957 4 4V20C4 20.5304 4.21071 21.0391 4.58579 21.4142C4.96086 21.7893 5.46957 22 6 22H18C18.5304 22 19.0391 21.7893 19.4142 21.4142C19.7893 21.0391 20 20.5304 20 20V8.82843C20 8.29799 19.7893 7.78929 19.4142 7.41421L14.5858 2.58579ZM18 18C18 19.1046 17.1046 20 16 20H8C6.89543 20 6 19.1046 6 18V6C6 4.89543 6.89543 4 8 4H11C12.1046 4 13 4.89543 13 6V7C13 8.10457 13.8954 9 15 9H16C17.1046 9 18 9.89543 18 11V18Z" fill="currentColor"/>
</svg>
