<svg width="18" height="18" viewBox="0 0 18 18" fill="none" xmlns="http://www.w3.org/2000/svg">
<path d="M8.99999 5.66663C9.88404 5.66663 10.7319 6.01782 11.357 6.64294C11.9821 7.26806 12.3333 8.1159 12.3333 8.99996C12.3333 9.88401 11.9821 10.7319 11.357 11.357C10.7319 11.9821 9.88404 12.3333 8.99999 12.3333C8.11593 12.3333 7.26809 11.9821 6.64297 11.357C6.01784 10.7319 5.66665 9.88401 5.66665 8.99996C5.66665 8.1159 6.01784 7.26806 6.64297 6.64294C7.26809 6.01782 8.11593 5.66663 8.99999 5.66663ZM8.99999 7.33329C8.55796 7.33329 8.13404 7.50889 7.82148 7.82145C7.50892 8.13401 7.33332 8.55793 7.33332 8.99996C7.33332 9.44199 7.50892 9.86591 7.82148 10.1785C8.13404 10.491 8.55796 10.6666 8.99999 10.6666C9.44202 10.6666 9.86594 10.491 10.1785 10.1785C10.4911 9.86591 10.6667 9.44199 10.6667 8.99996C10.6667 8.55793 10.4911 8.13401 10.1785 7.82145C9.86594 7.50889 9.44202 7.33329 8.99999 7.33329ZM7.33332 17.3333C7.12499 17.3333 6.94999 17.1833 6.91665 16.9833L6.60832 14.775C6.08332 14.5666 5.63332 14.2833 5.19999 13.95L3.12499 14.7916C2.94165 14.8583 2.71666 14.7916 2.61666 14.6083L0.949988 11.725C0.841655 11.5416 0.891655 11.3166 1.04999 11.1916L2.80832 9.80829L2.74999 8.99996L2.80832 8.16663L1.04999 6.80829C0.891655 6.68329 0.841655 6.45829 0.949988 6.27496L2.61666 3.39163C2.71666 3.20829 2.94165 3.13329 3.12499 3.20829L5.19999 4.04163C5.63332 3.71663 6.08332 3.43329 6.60832 3.22496L6.91665 1.01663C6.94999 0.816626 7.12499 0.666626 7.33332 0.666626H10.6667C10.875 0.666626 11.05 0.816626 11.0833 1.01663L11.3917 3.22496C11.9167 3.43329 12.3667 3.71663 12.8 4.04163L14.875 3.20829C15.0583 3.13329 15.2833 3.20829 15.3833 3.39163L17.05 6.27496C17.1583 6.45829 17.1083 6.68329 16.95 6.80829L15.1917 8.16663L15.25 8.99996L15.1917 9.83329L16.95 11.1916C17.1083 11.3166 17.1583 11.5416 17.05 11.725L15.3833 14.6083C15.2833 14.7916 15.0583 14.8666 14.875 14.7916L12.8 13.9583C12.3667 14.2833 11.9167 14.5666 11.3917 14.775L11.0833 16.9833C11.05 17.1833 10.875 17.3333 10.6667 17.3333H7.33332ZM8.37499 2.33329L8.06666 4.50829C7.06666 4.71663 6.18332 5.24996 5.54165 5.99163L3.53332 5.12496L2.90832 6.20829L4.66665 7.49996C4.33332 8.47496 4.33332 9.53329 4.66665 10.5L2.89999 11.8L3.52499 12.8833L5.54999 12.0166C6.19165 12.75 7.06666 13.2833 8.05832 13.4833L8.36665 15.6666H9.63332L9.94166 13.4916C10.9333 13.2833 11.8083 12.75 12.45 12.0166L14.475 12.8833L15.1 11.8L13.3333 10.5083C13.6667 9.53329 13.6667 8.47496 13.3333 7.49996L15.0917 6.20829L14.4667 5.12496L12.4583 5.99163C11.8167 5.24996 10.9333 4.71663 9.93332 4.51663L9.62499 2.33329H8.37499Z" fill="#898989"/>
</svg>
