<svg width="18" height="17" viewBox="0 0 18 17" fill="none" xmlns="http://www.w3.org/2000/svg">
<path d="M9.00002 11.0001C9.67502 11.0001 10.25 10.7501 10.7584 10.2584C11.25 9.75008 11.5 9.17508 11.5 8.50008C11.5 7.82508 11.25 7.25008 10.7584 6.74175C10.25 6.25008 9.67502 6.00008 9.00002 6.00008C8.32502 6.00008 7.75002 6.25008 7.24169 6.74175C6.75002 7.25008 6.50002 7.82508 6.50002 8.50008C6.50002 9.17508 6.75002 9.75008 7.24169 10.2584C7.75002 10.7501 8.32502 11.0001 9.00002 11.0001ZM9.00002 0.166748C11.2917 0.166748 13.25 1.00008 14.875 2.62508C16.5 4.25008 17.3334 6.20841 17.3334 8.50008V9.70841C17.3334 10.5417 17.0417 11.2501 16.5 11.8334C15.9167 12.3917 15.25 12.6667 14.4167 12.6667C13.4167 12.6667 12.5917 12.2501 11.9667 11.4167C11.1334 12.2501 10.15 12.6667 9.00002 12.6667C7.85835 12.6667 6.87502 12.2501 6.05002 11.4501C5.25002 10.6251 4.83335 9.65008 4.83335 8.50008C4.83335 7.35841 5.25002 6.37508 6.05002 5.55008C6.87502 4.75008 7.85835 4.33341 9.00002 4.33341C10.15 4.33341 11.125 4.75008 11.95 5.55008C12.75 6.37508 13.1667 7.35841 13.1667 8.50008V9.70841C13.1667 10.0501 13.3 10.3501 13.55 10.6084C13.8 10.8667 14.0917 11.0001 14.4167 11.0001C14.7667 11.0001 15.0584 10.8667 15.3084 10.6084C15.5584 10.3501 15.6667 10.0501 15.6667 9.70841V8.50008C15.6667 6.67508 15.025 5.10841 13.7084 3.79175C12.3917 2.47508 10.825 1.83341 9.00002 1.83341C7.17502 1.83341 5.60835 2.47508 4.29169 3.79175C2.97502 5.10841 2.33335 6.67508 2.33335 8.50008C2.33335 10.3251 2.97502 11.8917 4.29169 13.2084C5.60835 14.5251 7.17502 15.1667 9.00002 15.1667H13.1667V16.8334H9.00002C6.70835 16.8334 4.75002 16.0001 3.12502 14.3751C1.50002 12.7501 0.666687 10.7917 0.666687 8.50008C0.666687 6.20841 1.50002 4.25008 3.12502 2.62508C4.75002 1.00008 6.70835 0.166748 9.00002 0.166748Z" fill="#636363"/>
</svg>
