<svg width="4" height="14" viewBox="0 0 4 14" fill="none" xmlns="http://www.w3.org/2000/svg">
<path d="M1.99992 10.3334C2.44195 10.3334 2.86587 10.509 3.17843 10.8215C3.49099 11.1341 3.66659 11.558 3.66659 12C3.66659 12.4421 3.49099 12.866 3.17843 13.1786C2.86587 13.4911 2.44195 13.6667 1.99992 13.6667C1.55789 13.6667 1.13397 13.4911 0.821408 13.1786C0.508847 12.866 0.333252 12.4421 0.333252 12C0.333252 11.558 0.508847 11.1341 0.821408 10.8215C1.13397 10.509 1.55789 10.3334 1.99992 10.3334ZM1.99992 5.33337C2.44195 5.33337 2.86587 5.50897 3.17843 5.82153C3.49099 6.13409 3.66659 6.55801 3.66659 7.00004C3.66659 7.44207 3.49099 7.86599 3.17843 8.17855C2.86587 8.49111 2.44195 8.66671 1.99992 8.66671C1.55789 8.66671 1.13397 8.49111 0.821408 8.17855C0.508847 7.86599 0.333252 7.44207 0.333252 7.00004C0.333252 6.55801 0.508847 6.13409 0.821408 5.82153C1.13397 5.50897 1.55789 5.33337 1.99992 5.33337ZM1.99992 0.333374C2.44195 0.333374 2.86587 0.508969 3.17843 0.821529C3.49099 1.13409 3.66659 1.55801 3.66659 2.00004C3.66659 2.44207 3.49099 2.86599 3.17843 3.17855C2.86587 3.49111 2.44195 3.66671 1.99992 3.66671C1.55789 3.66671 1.13397 3.49111 0.821408 3.17855C0.508847 2.86599 0.333252 2.44207 0.333252 2.00004C0.333252 1.55801 0.508847 1.13409 0.821408 0.821529C1.13397 0.508969 1.55789 0.333374 1.99992 0.333374Z" fill="#636363"/>
</svg>
