<svg width="18" height="18" viewBox="0 0 18 18" fill="none" xmlns="http://www.w3.org/2000/svg">
<path d="M14.4166 0.666672H3.58329C1.99996 0.666672 0.666626 2.00001 0.666626 3.58334V14.4167C0.666626 16 1.99996 17.3333 3.58329 17.3333H12.3333L17.3333 12.3333V3.58334C17.3333 2.00001 16 0.666672 14.4166 0.666672ZM15.75 11.5H14.5C12.9166 11.5 11.5833 12.8333 11.5833 14.4167V15.6667H3.83329C2.99996 15.6667 2.33329 15 2.33329 14.1667V3.83334C2.33329 3.00001 2.99996 2.33334 3.83329 2.33334H14.25C15.0833 2.33334 15.75 3.00001 15.75 3.83334V11.5ZM4.83329 4.83334H13.1666V6.5H4.83329V4.83334ZM4.83329 8.16667H13.1666V9.83334H4.83329V8.16667ZM4.83329 11.5H9.83329V13.1667H4.83329V11.5Z" fill="black"/>
</svg>
