<svg width="8" height="14" viewBox="0 0 8 14" fill="none" xmlns="http://www.w3.org/2000/svg">
<path d="M2.66667 11.6667H4.66667V13.6667H2.66667V11.6667ZM4 0.333344C7.56667 0.48001 9.12 4.08001 7 6.78001C6.44667 7.44668 5.55333 7.88668 5.11333 8.44668C4.66667 9.00001 4.66667 9.66668 4.66667 10.3333H2.66667C2.66667 9.22001 2.66667 8.28001 3.11333 7.61334C3.55333 6.94668 4.44667 6.55334 5 6.11334C6.61333 4.62001 6.21333 2.50668 4 2.33334C3.46957 2.33334 2.96086 2.54406 2.58579 2.91913C2.21071 3.2942 2 3.80291 2 4.33334H0C0 3.27248 0.421427 2.25506 1.17157 1.50492C1.92172 0.754771 2.93913 0.333344 4 0.333344Z" fill="black"/>
</svg>
