<svg width="16" height="15" viewBox="0 0 16 15" fill="none" xmlns="http://www.w3.org/2000/svg">
<path d="M15.0833 8.62504L14.2499 9.45837L12.5416 7.75004L13.3749 6.91671C13.5499 6.74171 13.8416 6.74171 14.0166 6.91671L15.0833 7.98337C15.2583 8.15837 15.2583 8.45004 15.0833 8.62504ZM6.99992 13.2834L12.0499 8.23337L13.7583 9.94171L8.71659 15H6.99992V13.2834ZM6.99992 9.16671C3.31659 9.16671 0.333252 10.6584 0.333252 12.5V14.1667H5.33325V12.5917L8.66659 9.25837C8.11659 9.19171 7.55825 9.16671 6.99992 9.16671ZM6.99992 0.833374C6.11586 0.833374 5.26802 1.18456 4.6429 1.80968C4.01777 2.43481 3.66659 3.28265 3.66659 4.16671C3.66659 5.05076 4.01777 5.89861 4.6429 6.52373C5.26802 7.14885 6.11586 7.50004 6.99992 7.50004C7.88397 7.50004 8.73182 7.14885 9.35694 6.52373C9.98206 5.89861 10.3333 5.05076 10.3333 4.16671C10.3333 3.28265 9.98206 2.43481 9.35694 1.80968C8.73182 1.18456 7.88397 0.833374 6.99992 0.833374Z" fill="black"/>
</svg>
